<mxfile host="app.diagrams.net" agent="Mozilla/5.0 (Windows NT 10.0; Win64; x64) AppleWebKit/537.36 (KHTML, like Gecko) Chrome/130.0.0.0 Safari/537.36" version="24.8.2">
  <diagram id="6a731a19-8d31-9384-78a2-239565b7b9f0" name="医生端登录逻辑">
    <mxGraphModel dx="1050" dy="522" grid="1" gridSize="10" guides="1" tooltips="1" connect="1" arrows="1" fold="1" page="1" pageScale="1" pageWidth="1169" pageHeight="827" background="#ffffff" math="0" shadow="0">
      <root>
        <mxCell id="0" />
        <mxCell id="1" parent="0" />
        <mxCell id="2" value="登录" style="shape=mxgraph.flowchart.terminator;strokeWidth=2;gradientColor=none;gradientDirection=north;fontStyle=0;html=1;" parent="1" vertex="1">
          <mxGeometry x="260" y="60" width="120" height="30" as="geometry" />
        </mxCell>
        <mxCell id="3" value="验证账号和密码不能为空" style="shape=mxgraph.flowchart.data;strokeWidth=2;gradientColor=none;gradientDirection=north;fontStyle=0;html=1;" parent="1" vertex="1">
          <mxGeometry x="240.5" y="130" width="159" height="80" as="geometry" />
        </mxCell>
        <mxCell id="5" value="验证设备和用户是否存在" style="shape=mxgraph.flowchart.data;strokeWidth=2;gradientColor=none;gradientDirection=north;fontStyle=0;html=1;" parent="1" vertex="1">
          <mxGeometry x="240.5" y="250" width="159" height="80" as="geometry" />
        </mxCell>
        <mxCell id="KEAZZh82ltmncQ3XJhVD-60" style="edgeStyle=orthogonalEdgeStyle;rounded=0;orthogonalLoop=1;jettySize=auto;html=1;" parent="1" source="6" target="KEAZZh82ltmncQ3XJhVD-59" edge="1">
          <mxGeometry relative="1" as="geometry" />
        </mxCell>
        <mxCell id="6" value="设备是否同一分站" style="shape=mxgraph.flowchart.decision;strokeWidth=2;gradientColor=none;gradientDirection=north;fontStyle=0;html=1;" parent="1" vertex="1">
          <mxGeometry x="271" y="390" width="98" height="57" as="geometry" />
        </mxCell>
        <mxCell id="7" style="fontStyle=1;strokeColor=#003366;strokeWidth=1;html=1;" parent="1" source="2" target="3" edge="1">
          <mxGeometry relative="1" as="geometry" />
        </mxCell>
        <mxCell id="8" style="fontStyle=1;strokeColor=#003366;strokeWidth=1;html=1;" parent="1" source="3" target="5" edge="1">
          <mxGeometry relative="1" as="geometry" />
        </mxCell>
        <mxCell id="9" style="entryX=0.5;entryY=0;entryPerimeter=0;fontStyle=1;strokeColor=#003366;strokeWidth=1;html=1;" parent="1" source="5" target="6" edge="1">
          <mxGeometry relative="1" as="geometry" />
        </mxCell>
        <mxCell id="KEAZZh82ltmncQ3XJhVD-55" value="存在" style="edgeLabel;html=1;align=center;verticalAlign=middle;resizable=0;points=[];" parent="9" vertex="1" connectable="0">
          <mxGeometry x="-0.2067" relative="1" as="geometry">
            <mxPoint as="offset" />
          </mxGeometry>
        </mxCell>
        <mxCell id="12" value="" style="edgeStyle=elbowEdgeStyle;elbow=horizontal;fontColor=#001933;fontStyle=1;strokeColor=#003366;strokeWidth=1;html=1;" parent="1" source="6" edge="1">
          <mxGeometry width="100" height="100" as="geometry">
            <mxPoint y="100" as="sourcePoint" />
            <mxPoint x="320" y="510" as="targetPoint" />
          </mxGeometry>
        </mxCell>
        <mxCell id="14" value="是" style="text;fontStyle=0;html=1;strokeColor=none;gradientColor=none;fillColor=none;strokeWidth=2;align=center;" parent="1" vertex="1">
          <mxGeometry x="320" y="447" width="40" height="26" as="geometry" />
        </mxCell>
        <mxCell id="15" value="提前前端弹窗先在&lt;div&gt;其他设备退出账号&lt;/div&gt;" style="shape=mxgraph.flowchart.document;strokeWidth=2;gradientColor=none;gradientDirection=north;fontStyle=0;html=1;" parent="1" vertex="1">
          <mxGeometry x="480" y="515" width="140" height="70" as="geometry" />
        </mxCell>
        <mxCell id="16" value="是" style="edgeStyle=elbowEdgeStyle;elbow=vertical;exitX=0.905;exitY=0.5;exitPerimeter=0;fontStyle=1;strokeColor=#003366;strokeWidth=1;html=1;" parent="1" target="15" edge="1">
          <mxGeometry width="100" height="100" as="geometry">
            <mxPoint x="384.395" y="550" as="sourcePoint" />
            <mxPoint x="100" as="targetPoint" />
          </mxGeometry>
        </mxCell>
        <mxCell id="17" value="" style="edgeStyle=elbowEdgeStyle;elbow=horizontal;fontStyle=1;strokeColor=#003366;strokeWidth=1;html=1;" parent="1" edge="1">
          <mxGeometry width="100" height="100" as="geometry">
            <mxPoint x="320" y="570" as="sourcePoint" />
            <mxPoint x="320" y="640" as="targetPoint" />
          </mxGeometry>
        </mxCell>
        <mxCell id="KEAZZh82ltmncQ3XJhVD-64" value="否" style="edgeLabel;html=1;align=center;verticalAlign=middle;resizable=0;points=[];" parent="17" vertex="1" connectable="0">
          <mxGeometry relative="1" as="geometry">
            <mxPoint x="-2" y="-17" as="offset" />
          </mxGeometry>
        </mxCell>
        <mxCell id="19" value="" style="edgeStyle=elbowEdgeStyle;elbow=horizontal;exitX=0.905;exitY=0.5;exitPerimeter=0;fontStyle=1;strokeColor=#003366;strokeWidth=1;html=1;" parent="1" edge="1">
          <mxGeometry width="100" height="100" as="geometry">
            <mxPoint x="384.395" y="680" as="sourcePoint" />
            <mxPoint x="480" y="680" as="targetPoint" />
          </mxGeometry>
        </mxCell>
        <mxCell id="21" value="" style="edgeStyle=elbowEdgeStyle;elbow=horizontal;entryX=0.5;entryY=0.195;entryPerimeter=0;fontStyle=1;strokeColor=#003366;strokeWidth=1;html=1;" parent="1" edge="1">
          <mxGeometry width="100" height="100" as="geometry">
            <mxPoint x="321" y="720" as="sourcePoint" />
            <mxPoint x="321" y="795.5999999999999" as="targetPoint" />
          </mxGeometry>
        </mxCell>
        <mxCell id="23" value="" style="edgeStyle=elbowEdgeStyle;elbow=horizontal;exitX=0.5;exitY=1;exitPerimeter=0;fontStyle=1;strokeColor=#003366;strokeWidth=1;html=1;exitDx=0;exitDy=0;" parent="1" source="KEAZZh82ltmncQ3XJhVD-66" edge="1">
          <mxGeometry width="100" height="100" as="geometry">
            <mxPoint x="321" y="860" as="sourcePoint" />
            <mxPoint x="321" y="920" as="targetPoint" />
          </mxGeometry>
        </mxCell>
        <mxCell id="KEAZZh82ltmncQ3XJhVD-76" value="否" style="edgeLabel;html=1;align=center;verticalAlign=middle;resizable=0;points=[];" parent="23" vertex="1" connectable="0">
          <mxGeometry relative="1" as="geometry">
            <mxPoint x="-3" y="-6" as="offset" />
          </mxGeometry>
        </mxCell>
        <mxCell id="24" value="当前账号是否绑车" style="shape=mxgraph.flowchart.decision;strokeWidth=2;gradientColor=none;gradientDirection=north;fontStyle=0;html=1;" parent="1" vertex="1">
          <mxGeometry x="261.5" y="1080" width="119" height="78.5" as="geometry" />
        </mxCell>
        <mxCell id="25" value="" style="edgeStyle=elbowEdgeStyle;elbow=vertical;exitX=0.5;exitY=0.9;exitPerimeter=0;fontStyle=1;strokeColor=#003366;strokeWidth=1;html=1;" parent="1" target="24" edge="1">
          <mxGeometry width="100" height="100" as="geometry">
            <mxPoint x="320" y="1001" as="sourcePoint" />
            <mxPoint x="100" as="targetPoint" />
          </mxGeometry>
        </mxCell>
        <mxCell id="KEAZZh82ltmncQ3XJhVD-75" value="否" style="edgeLabel;html=1;align=center;verticalAlign=middle;resizable=0;points=[];" parent="25" vertex="1" connectable="0">
          <mxGeometry relative="1" as="geometry">
            <mxPoint x="1" y="-17" as="offset" />
          </mxGeometry>
        </mxCell>
        <mxCell id="27" value="是" style="text;fontStyle=0;html=1;strokeColor=none;gradientColor=none;fillColor=none;strokeWidth=2;" parent="1" vertex="1">
          <mxGeometry x="280" y="1158.5" width="40" height="26" as="geometry" />
        </mxCell>
        <mxCell id="28" value="是否在任务中" style="shape=mxgraph.flowchart.decision;strokeWidth=2;gradientColor=none;gradientDirection=north;fontStyle=0;html=1;" parent="1" vertex="1">
          <mxGeometry x="255" y="1210" width="130" height="100" as="geometry" />
        </mxCell>
        <mxCell id="29" value="当前设备无人绑定" style="shape=mxgraph.flowchart.decision;strokeWidth=2;gradientColor=none;gradientDirection=north;fontStyle=0;html=1;" parent="1" vertex="1">
          <mxGeometry x="510" y="1210" width="130" height="100" as="geometry" />
        </mxCell>
        <mxCell id="30" value="" style="edgeStyle=elbowEdgeStyle;elbow=horizontal;exitX=0.5;exitY=1;exitPerimeter=0;fontStyle=1;strokeColor=#003366;strokeWidth=1;html=1;" parent="1" source="24" target="28" edge="1">
          <mxGeometry width="100" height="100" as="geometry">
            <mxPoint y="100" as="sourcePoint" />
            <mxPoint x="100" as="targetPoint" />
          </mxGeometry>
        </mxCell>
        <mxCell id="31" value="" style="edgeStyle=elbowEdgeStyle;elbow=horizontal;exitX=1;exitY=0.5;exitPerimeter=0;entryX=0;entryY=0.5;entryPerimeter=0;fontStyle=1;strokeColor=#003366;strokeWidth=1;html=1;" parent="1" source="28" target="29" edge="1">
          <mxGeometry width="100" height="100" as="geometry">
            <mxPoint y="100" as="sourcePoint" />
            <mxPoint x="100" as="targetPoint" />
          </mxGeometry>
        </mxCell>
        <mxCell id="32" value="验证任务是否一致" style="shape=mxgraph.flowchart.merge_or_storage;strokeWidth=2;gradientColor=none;gradientDirection=north;fontStyle=0;html=1;" parent="1" vertex="1">
          <mxGeometry x="760" y="1300" width="130" height="80.5" as="geometry" />
        </mxCell>
        <mxCell id="33" value="" style="edgeStyle=elbowEdgeStyle;elbow=vertical;exitX=1;exitY=0.5;exitPerimeter=0;entryX=0.5;entryY=0;entryPerimeter=0;fontStyle=1;strokeColor=#003366;strokeWidth=1;html=1;" parent="1" source="29" target="32" edge="1">
          <mxGeometry width="100" height="100" as="geometry">
            <mxPoint y="100" as="sourcePoint" />
            <mxPoint x="100" as="targetPoint" />
            <Array as="points">
              <mxPoint x="740" y="1260" />
            </Array>
          </mxGeometry>
        </mxCell>
        <mxCell id="34" value="写入登录信息到&lt;div&gt;用户信息里面&lt;/div&gt;" style="shape=mxgraph.flowchart.data;strokeWidth=2;gradientColor=none;gradientDirection=north;fontStyle=0;html=1;" parent="1" vertex="1">
          <mxGeometry x="240.5" y="1490" width="159" height="80" as="geometry" />
        </mxCell>
        <mxCell id="35" value="" style="edgeStyle=elbowEdgeStyle;elbow=vertical;exitX=0.5;exitY=1;exitPerimeter=0;fontColor=#001933;fontStyle=1;strokeColor=#003366;strokeWidth=1;html=1;" parent="1" source="28" target="34" edge="1">
          <mxGeometry width="100" height="100" as="geometry">
            <mxPoint y="100" as="sourcePoint" />
            <mxPoint x="100" as="targetPoint" />
          </mxGeometry>
        </mxCell>
        <mxCell id="36" value="" style="edgeStyle=elbowEdgeStyle;elbow=vertical;exitX=0.5;exitY=1;exitPerimeter=0;entryX=0.5;entryY=0;entryPerimeter=0;fontStyle=1;strokeColor=#003366;strokeWidth=1;html=1;" parent="1" source="29" target="34" edge="1">
          <mxGeometry width="100" height="100" as="geometry">
            <mxPoint y="100" as="sourcePoint" />
            <mxPoint x="100" as="targetPoint" />
          </mxGeometry>
        </mxCell>
        <mxCell id="40" value="end" style="shape=mxgraph.flowchart.terminator;strokeWidth=2;gradientColor=none;gradientDirection=north;fontStyle=0;html=1;" parent="1" vertex="1">
          <mxGeometry x="265" y="1622" width="120" height="30" as="geometry" />
        </mxCell>
        <mxCell id="41" value="" style="edgeStyle=elbowEdgeStyle;elbow=vertical;exitX=0.5;exitY=1;exitPerimeter=0;entryX=0.5;entryY=0;entryPerimeter=0;fontStyle=1;strokeColor=#003366;strokeWidth=1;html=1;" parent="1" source="34" edge="1">
          <mxGeometry width="100" height="100" as="geometry">
            <mxPoint y="100" as="sourcePoint" />
            <mxPoint x="320" y="1621.5" as="targetPoint" />
          </mxGeometry>
        </mxCell>
        <mxCell id="45" value="" style="edgeStyle=elbowEdgeStyle;elbow=horizontal;exitX=1;exitY=0.5;exitPerimeter=0;entryX=0.905;entryY=0.5;entryPerimeter=0;fontStyle=1;strokeColor=#003366;strokeWidth=1;html=1;" parent="1" source="24" target="34" edge="1">
          <mxGeometry width="100" height="100" as="geometry">
            <mxPoint y="100" as="sourcePoint" />
            <mxPoint x="100" as="targetPoint" />
            <Array as="points">
              <mxPoint x="950" y="1320" />
            </Array>
          </mxGeometry>
        </mxCell>
        <mxCell id="46" value="否" style="text;fontStyle=0;html=1;strokeColor=none;gradientColor=none;fillColor=none;strokeWidth=2;" parent="1" vertex="1">
          <mxGeometry x="410" y="1093.25" width="40" height="26" as="geometry" />
        </mxCell>
        <mxCell id="47" value="是" style="text;fontColor=#001933;fontStyle=0;html=1;strokeColor=none;gradientColor=none;fillColor=none;strokeWidth=2;" parent="1" vertex="1">
          <mxGeometry x="385" y="1234" width="40" height="26" as="geometry" />
        </mxCell>
        <mxCell id="48" value="否" style="text;fontColor=#001933;fontStyle=0;html=1;strokeColor=none;gradientColor=none;fillColor=none;strokeWidth=2;align=center;" parent="1" vertex="1">
          <mxGeometry x="320" y="1310" width="40" height="26" as="geometry" />
        </mxCell>
        <mxCell id="49" value="否" style="text;fontColor=#001933;fontStyle=0;html=1;strokeColor=none;gradientColor=none;fillColor=none;strokeWidth=2;align=center;" parent="1" vertex="1">
          <mxGeometry x="575" y="1310" width="40" height="26" as="geometry" />
        </mxCell>
        <mxCell id="50" value="是" style="text;fontColor=#001933;fontStyle=0;html=1;strokeColor=none;gradientColor=none;fillColor=none;strokeWidth=2;" parent="1" vertex="1">
          <mxGeometry x="640" y="1234" width="40" height="26" as="geometry" />
        </mxCell>
        <mxCell id="51" value="提示注册设备/&lt;div&gt;和用户所属分站，调整成一致&lt;/div&gt;" style="shape=mxgraph.flowchart.paper_tape;strokeWidth=2;gradientColor=none;gradientDirection=north;fontStyle=0;html=1;" parent="1" vertex="1">
          <mxGeometry x="450" y="377" width="150" height="81" as="geometry" />
        </mxCell>
        <mxCell id="KEAZZh82ltmncQ3XJhVD-56" style="edgeStyle=orthogonalEdgeStyle;rounded=0;orthogonalLoop=1;jettySize=auto;html=1;entryX=1;entryY=0.5;entryDx=0;entryDy=0;entryPerimeter=0;" parent="1" source="51" target="2" edge="1">
          <mxGeometry relative="1" as="geometry">
            <Array as="points">
              <mxPoint x="650" y="400" />
              <mxPoint x="650" y="75" />
            </Array>
          </mxGeometry>
        </mxCell>
        <mxCell id="KEAZZh82ltmncQ3XJhVD-59" value="不是同一分站&lt;div&gt;提示需要调整一致&lt;/div&gt;" style="shape=mxgraph.flowchart.paper_tape;strokeWidth=2;gradientColor=none;gradientDirection=north;fontStyle=0;html=1;" parent="1" vertex="1">
          <mxGeometry x="40" y="378" width="150" height="81" as="geometry" />
        </mxCell>
        <mxCell id="KEAZZh82ltmncQ3XJhVD-61" style="edgeStyle=orthogonalEdgeStyle;rounded=0;orthogonalLoop=1;jettySize=auto;html=1;entryX=0;entryY=0.5;entryDx=0;entryDy=0;entryPerimeter=0;" parent="1" source="KEAZZh82ltmncQ3XJhVD-59" target="2" edge="1">
          <mxGeometry relative="1" as="geometry">
            <Array as="points">
              <mxPoint x="100" y="75" />
            </Array>
          </mxGeometry>
        </mxCell>
        <mxCell id="KEAZZh82ltmncQ3XJhVD-62" value="账号是否在&lt;div&gt;其他设备登录&lt;/div&gt;" style="shape=mxgraph.flowchart.decision;strokeWidth=2;gradientColor=none;gradientDirection=north;fontStyle=0;html=1;" parent="1" vertex="1">
          <mxGeometry x="272" y="510" width="98" height="57" as="geometry" />
        </mxCell>
        <mxCell id="KEAZZh82ltmncQ3XJhVD-63" style="edgeStyle=orthogonalEdgeStyle;rounded=0;orthogonalLoop=1;jettySize=auto;html=1;entryX=1.017;entryY=0.28;entryDx=0;entryDy=0;entryPerimeter=0;" parent="1" source="15" target="2" edge="1">
          <mxGeometry relative="1" as="geometry">
            <Array as="points">
              <mxPoint x="650" y="550" />
              <mxPoint x="650" y="70" />
              <mxPoint x="382" y="70" />
            </Array>
          </mxGeometry>
        </mxCell>
        <mxCell id="KEAZZh82ltmncQ3XJhVD-68" value="" style="edgeStyle=orthogonalEdgeStyle;rounded=0;orthogonalLoop=1;jettySize=auto;html=1;" parent="1" source="KEAZZh82ltmncQ3XJhVD-65" target="KEAZZh82ltmncQ3XJhVD-66" edge="1">
          <mxGeometry relative="1" as="geometry" />
        </mxCell>
        <mxCell id="KEAZZh82ltmncQ3XJhVD-69" value="正确" style="edgeLabel;html=1;align=center;verticalAlign=middle;resizable=0;points=[];" parent="KEAZZh82ltmncQ3XJhVD-68" vertex="1" connectable="0">
          <mxGeometry x="-0.1829" relative="1" as="geometry">
            <mxPoint as="offset" />
          </mxGeometry>
        </mxCell>
        <mxCell id="KEAZZh82ltmncQ3XJhVD-65" value="密码是否正确" style="shape=mxgraph.flowchart.decision;strokeWidth=2;gradientColor=none;gradientDirection=north;fontStyle=0;html=1;" parent="1" vertex="1">
          <mxGeometry x="271" y="640" width="98" height="80" as="geometry" />
        </mxCell>
        <mxCell id="KEAZZh82ltmncQ3XJhVD-70" style="edgeStyle=orthogonalEdgeStyle;rounded=0;orthogonalLoop=1;jettySize=auto;html=1;" parent="1" source="KEAZZh82ltmncQ3XJhVD-66" edge="1">
          <mxGeometry relative="1" as="geometry">
            <mxPoint x="510" y="818.5" as="targetPoint" />
          </mxGeometry>
        </mxCell>
        <mxCell id="KEAZZh82ltmncQ3XJhVD-71" value="是" style="edgeLabel;html=1;align=center;verticalAlign=middle;resizable=0;points=[];" parent="KEAZZh82ltmncQ3XJhVD-70" vertex="1" connectable="0">
          <mxGeometry x="-0.0035" y="4" relative="1" as="geometry">
            <mxPoint x="2" as="offset" />
          </mxGeometry>
        </mxCell>
        <mxCell id="KEAZZh82ltmncQ3XJhVD-66" value="密码是否是123456&lt;div&gt;、或者未登录过&lt;/div&gt;" style="shape=mxgraph.flowchart.decision;strokeWidth=2;gradientColor=none;gradientDirection=north;fontStyle=0;html=1;" parent="1" vertex="1">
          <mxGeometry x="271" y="790" width="98" height="57" as="geometry" />
        </mxCell>
        <mxCell id="KEAZZh82ltmncQ3XJhVD-77" style="edgeStyle=orthogonalEdgeStyle;rounded=0;orthogonalLoop=1;jettySize=auto;html=1;" parent="1" source="KEAZZh82ltmncQ3XJhVD-67" edge="1">
          <mxGeometry relative="1" as="geometry">
            <mxPoint x="460" y="948.5" as="targetPoint" />
          </mxGeometry>
        </mxCell>
        <mxCell id="KEAZZh82ltmncQ3XJhVD-67" value="当前设备是否在&lt;div&gt;其他账号登录且在任务重&lt;/div&gt;" style="shape=mxgraph.flowchart.decision;strokeWidth=2;gradientColor=none;gradientDirection=north;fontStyle=0;html=1;" parent="1" vertex="1">
          <mxGeometry x="271" y="920" width="98" height="57" as="geometry" />
        </mxCell>
        <mxCell id="KEAZZh82ltmncQ3XJhVD-72" value="跳入修改&lt;div&gt;密码页面/修改密码&lt;/div&gt;" style="shape=mxgraph.flowchart.document;strokeWidth=2;gradientColor=none;gradientDirection=north;fontStyle=0;html=1;" parent="1" vertex="1">
          <mxGeometry x="510" y="790" width="140" height="70" as="geometry" />
        </mxCell>
        <mxCell id="KEAZZh82ltmncQ3XJhVD-73" style="edgeStyle=orthogonalEdgeStyle;rounded=0;orthogonalLoop=1;jettySize=auto;html=1;entryX=1;entryY=0.5;entryDx=0;entryDy=0;entryPerimeter=0;" parent="1" source="KEAZZh82ltmncQ3XJhVD-72" target="2" edge="1">
          <mxGeometry relative="1" as="geometry">
            <Array as="points">
              <mxPoint x="650" y="75" />
            </Array>
          </mxGeometry>
        </mxCell>
        <mxCell id="KEAZZh82ltmncQ3XJhVD-74" value="提示密码错误/忘记密码" style="shape=mxgraph.flowchart.document;strokeWidth=2;gradientColor=none;gradientDirection=north;fontStyle=0;html=1;" parent="1" vertex="1">
          <mxGeometry x="480" y="645" width="140" height="70" as="geometry" />
        </mxCell>
        <mxCell id="KEAZZh82ltmncQ3XJhVD-78" value="任务中/只能当前账号登录&lt;div&gt;其他账号不能进行登录&lt;/div&gt;" style="shape=mxgraph.flowchart.document;strokeWidth=2;gradientColor=none;gradientDirection=north;fontStyle=0;html=1;" parent="1" vertex="1">
          <mxGeometry x="460" y="913.5" width="140" height="70" as="geometry" />
        </mxCell>
        <mxCell id="KEAZZh82ltmncQ3XJhVD-80" style="edgeStyle=orthogonalEdgeStyle;rounded=0;orthogonalLoop=1;jettySize=auto;html=1;entryX=0;entryY=0.5;entryDx=0;entryDy=0;entryPerimeter=0;" parent="1" source="6" target="51" edge="1">
          <mxGeometry relative="1" as="geometry" />
        </mxCell>
      </root>
    </mxGraphModel>
  </diagram>
</mxfile>
